<?xml version="1.0" encoding="UTF-8"?> <svg xmlns="http://www.w3.org/2000/svg" id="Layer_2" data-name="Layer 2" viewBox="0 0 300 300.03"><defs><style> .cls-1 { fill: #009a4d; } .cls-2 { fill: #fff; } .cls-3 { fill: #e22827; } .cls-4 { fill: #d69929; } </style></defs><g id="Layer_1-2" data-name="Layer 1"><g><path class="cls-2" d="M297.96,150.04c.06,81.47-66.32,147.96-147.97,147.95-82.2-.01-148.32-67.34-147.94-148.7C2.42,68.76,68.22,1.75,150.57,2.04c81.44.29,147.47,66.73,147.39,147.99Z"></path><path class="cls-3" d="M300,150.04c.06,82.59-67.23,150-150.01,149.99C66.66,300.02-.38,231.76,0,149.28.38,67.64,67.09-.3,150.58,0c82.56.29,149.51,67.65,149.42,150.04ZM3.93,149.96c-.04,79.97,64.71,145.76,145.4,146.14,80.69.38,146.62-64.89,146.76-145.81.14-80.75-65.12-146.15-145.63-146.37C68.83,3.7,3.93,70.03,3.93,149.96Z"></path><path class="cls-3" d="M197.69,209.54c-26.97,23.59-71.38,24.92-100.63-3.64-29.74-29.03-30.14-76.67-1.11-106.18,28.84-29.32,72.37-28.06,98.94-7.04-14.71-4.84-29.04-4.78-43.16.67-14.12,5.45-24.92,14.9-32.27,28.14-12.36,22.25-9.91,50.26,6.85,70.25,16.32,19.47,44.33,28.37,71.38,17.81Z"></path><path class="cls-1" d="M174.15,170.47c-1.13-.86-2.1-1.6-3.09-2.35,1.3-11.27,1.27-22.5,1.02-33.74,0-.3-.16-.6-.24-.89-2.07.37-5.05,2.87-7.26,6.03-1.58,2.26-2.12,3.65-3.42,8.87-1.16-1.86-1.26-6.69-.18-10.06,1.06-3.32,3.05-6.05,5.52-8.51-7.96.58-13.22,4.78-16.35,11.9-.23-6.15,3.37-15.51,14.99-18.38-.05-.76-.75-.7-1.17-.81-4.5-1.24-8.88-.87-13.1,1.17-.86.42-1.69.9-2.55,1.37,1.18-2.51,4.44-5.21,7.84-6.7,3.33-1.46,6.84-1.35,10.42-1.38-1.92-2.83-4.68-4.43-7.66-5.78,4.99-.31,9.38,1.25,13.28,4.56.84-1.77.95-3.65,2.09-5.27,1.04,1.64,1.07,3.46,1.79,5.26,3.93-3.21,8.31-4.87,13.35-4.56-2.99,1.32-5.73,2.96-7.93,5.89,1.18,0,2.05.04,2.93,0,3.52-.2,6.81.55,9.85,2.34,2.26,1.34,4.22,3.02,5.58,5.4-5.36-3.12-10.9-4.01-16.82-1.67,9.07,2.54,14.34,8.21,15.02,17.76-3.43-6.65-8.69-10.61-16.35-11.33,1.51,1.97,3.05,3.72,4.29,5.67,1.28,2,1.86,4.33,2.06,6.69.2,2.36-.02,4.69-.89,6.95-.33-3.28-1.38-6.29-3.18-9.02-1.81-2.75-4.08-5.02-7.26-6.57-.11.56-.23.9-.23,1.25-.09,6.69-.28,13.39-.19,20.08.05,3.95.51,7.9.84,11.84.09,1.1-.02,1.99-1.08,2.59-.64.37-1.2.87-1.9,1.4Z"></path><path d="M58.59,84.54c-.23,3.99-2.77,6.92-4.61,10.29,3.13,3.14,2.79,6.77,1.38,10.74-.78-.25-1.5-.48-2.32-.75.51-2.55,1.58-5.05-.33-7.61-.36.61-.62,1.05-.88,1.49-.3.51-.57,1.03-.9,1.52-1.88,2.78-4.83,3.55-7.72,2.05-2.7-1.41-3.8-4.43-2.71-7.43,1.29-3.54,4.25-4.87,7.71-3.38,1.17.5,2.26,1.19,3.51,1.85,1.36-2.7,3.39-4.95,4.33-7.91-1.88.16-3.57.34-5.27.43-1.37.07-2.61-1.33-2.4-2.69.4-2.55,1.39-4.88,3.18-6.73,2.58-2.67,4.44-2.45,6.01.9.56,1.2.85,2.53,1.32,3.98.54-.43,1.17-.8,1.64-1.32,1.65-1.83,3.24-3.71,4.86-5.56.52-.6.48-1.18-.03-1.71-.63-.65-1.32-1.26-1.99-1.87-.43-.4-.88-.78-1.45-1.28.67-.73,1.24-1.34,1.92-2.09.97.92,1.87,1.79,2.8,2.65.95.88,1.19.93,2.21.24.71-.48,1.36-1.05,1.98-1.63.88-.83.92-1.26.11-2.17-.96-1.08-1.98-2.11-2.97-3.17-.25-.27-.48-.56-.81-.97.65-.6,1.26-1.17,2.01-1.86,1.09,1.18,2.13,2.31,3.17,3.43,1.1,1.2,1.34,1.27,2.71.52.7-.39,1.35-.88,1.96-1.39,1.1-.93,1.13-1.21.21-2.38-1.39-1.77-2.82-3.49-4.35-5.37.73-.61,1.4-1.17,2.19-1.82,1.3,1.67,2.51,3.22,3.73,4.77,1.09,1.39,1.4,1.58,2.93.76,1.73-.93,3.32-2.12,5.11-3.29-3.45-5.15-6.81-10.16-10.27-15.34.84-.56,1.62-1.08,2.57-1.71,3.79,5.93,7.53,11.77,11.33,17.72-.34.28-.64.57-.97.8-1.15.79-2.36,1.49-3.45,2.35-1.51,1.19-3.13,2.05-5.05,2.13-.79,3.48-3.5,4.63-6.41,5.55-.45,3.31-3.03,4.52-5.72,5.81.03,1.32-.69,2.39-1.65,3.38-.93.96-1.81,1.98-2.61,3.05-1.57,2.09-3.46,3.79-6,5.02ZM50.46,95.64c-1.39-.62-2.46-1.23-3.62-1.6-1.14-.36-2.33-.36-3.28.61-1.35,1.38-1.3,3.44.12,4.7,1.51,1.35,3.44,1.31,4.66-.24.78-.99,1.33-2.16,2.12-3.47ZM50.59,83.42c1.11-.05,2.05-.05,2.98-.15,3.13-.33,3.59-1.13,2.41-4.08-.62-1.56-1.49-1.82-2.8-.73-1.49,1.23-2.24,2.88-2.59,4.96Z"></path><path class="cls-4" d="M206.66,162.94c-10.88.86-19.57,6.28-28.35,11.98.34.35.51.61.75.76,4.64,2.88,9.28,5.76,13.95,8.59,1,.6,2.11,1.03,3.2,1.48,1.23.51,2.4.53,3.35-.61.08-.1.28-.1.42-.15.38,1.4-.03,2.46-1.29,3.22-1.3.78-2.73,1.02-4.17.61-1.28-.36-2.59-.77-3.73-1.42-3.9-2.23-7.74-4.57-11.6-6.88-1.24-.74-2.51-1.44-3.7-2.27-.92-.64-1.66-.65-2.62-.03-3.11,1.99-6.26,3.93-9.43,5.82-2.3,1.37-4.64,2.66-7.01,3.91-1.33.7-2.79,1.11-4.32,1.02-1.16-.06-2.21-.44-3.06-1.23-.73-.68-1.21-1.5-.83-2.55.14-.03.29-.1.33-.06,1.34,1.29,2.82,1.14,4.29.36,2.27-1.2,4.52-2.44,6.72-3.76,3.17-1.9,6.28-3.89,9.41-5.85.31-.19.58-.45.87-.67-.96-1.32-7.81-5.5-13.21-8.1-4.67-2.25-9.57-3.65-14.73-4.23,5.39-.91,10.64-.37,15.78,1.44,3.71,1.31,7.11,3.24,10.51,5.16,1.54.87,3.09,1.72,4.6,2.64.91.56,1.65.65,2.63.05,2.51-1.53,5.11-2.92,7.68-4.36,4.47-2.5,9.13-4.44,14.26-5.14,2.35-.32,6.64-.29,9.29.28Z"></path><path d="M232.43,75.91c-2.56-2.62-4.99-5.1-7.65-7.82-.17.73-.23,1.06-.32,1.4-.6,2.34-2.8,4.12-5.12,4.14-1.8.02-3.07-.79-3.76-2.47-.73-1.78-.61-3.58.15-5.31.51-1.17,1.17-2.27,1.84-3.54-1.74-1.68-4.42-2.65-5.04-5.57-1.71.63-2.99-.16-4.35-.98-2.89-1.73-5.87-3.31-8.82-4.95-.41-.23-.83-.45-1.35-.74.37-.78.71-1.48,1.13-2.37,1.91.97,3.7,1.87,5.7,2.88,2.04-3.67,4.08-7.33,6.17-11.11.9.53,1.66.99,2.53,1.5-2.14,3.68-4.22,7.28-6.36,10.96,1.07.65,2.08,1.25,3.06,1.88.56.36,1.03.25,1.43-.19.32-.36.59-.76.85-1.17,2.58-4.01,5.15-8.02,7.73-12.02.29-.44.59-.87.97-1.43.86.55,1.66,1.06,2.53,1.62-.33.53-.6.97-.9,1.41-2.63,3.91-5.27,7.81-7.91,11.71-.87,1.29-.88,1.62.04,2.82.29.38.63.74,1,1.04,1.17.92,2.37,1.81,3.61,2.75.53-.37,1-.7,1.49-1.02,2.24-1.5,4.64-2.4,7.4-2.17,2.56.22,3.83,1.9,3.26,4.41-.58,2.57-2.13,4.24-4.58,4.76,1.76,1.88,3.54,3.78,5.44,5.81,4.48-4.21,8.9-8.36,13.41-12.6.71.77,1.32,1.42,2.07,2.24-5.17,4.77-10.4,9.39-15.64,14.12ZM219.65,63.86c-1.03,1.19-1.66,2.41-1.88,3.8-.16.95-.15,1.93.44,2.79.35.52.81.89,1.47.77,1.32-.25,2.18-1.07,2.68-2.29.49-1.21.33-2.33-.6-3.26-.6-.6-1.29-1.11-2.11-1.81ZM221.63,61.94c.85.71,1.53,1.39,2.32,1.92,1.05.7,2.23.79,3.33.12,1.14-.68,1.69-1.77,1.71-3.08.01-1.01-.46-1.46-1.48-1.45-2.24.01-4.08.96-5.89,2.49Z"></path><path d="M260.12,137.2c-.18-1.09-.31-2.13-.52-3.16-.85-4.19-1.71-8.38-2.58-12.57-.2-.94-.55-1.86-.63-2.81-.08-.94.11-1.91.18-2.96-1.34-.49-1.8-1.71-2.26-3-.73-2.07-1.71-4.07-1.13-6.44-1.46-.46-2.15-1.53-2.67-2.82-.48-1.19-1.11-2.32-1.68-3.47-.72-1.45-.99-2.92-.03-4.35-.66-.58-1.29-1.08-1.86-1.64-.9-.88-1.46-1.97-1.74-3.2-.79-3.48,2.42-6.23,6-5.1,1.88.6,3.39,1.81,4.79,3.15.58.55,1.04,1.22,1.51,1.77.71-.26,1.15-.41,1.68-.61.43.79.84,1.53,1.3,2.37-.4.25-.73.49-1.09.68-2.27,1.2-4.56,2.37-6.83,3.58-1.64.87-1.74,1.22-.93,2.92.44.92.89,1.83,1.35,2.74.55,1.08.88,1.24,2.02.78,1.44-.58,2.84-1.25,4.26-1.88.68-.3,1.36-.6,2.24-.98.39.86.75,1.66,1.17,2.58-2.44,1.05-4.79,2.05-7.12,3.05-.31,1.29-.01,2.42.4,3.53.3.8.61,1.6.92,2.4.46,1.2.82,1.42,2.04,1.03,1.63-.51,3.24-1.11,4.86-1.66.55-.19,1.1-.35,1.79-.57.31.88.58,1.66.91,2.59-.62.24-1.15.46-1.69.63-1.63.53-3.26,1.06-4.9,1.53-.67.19-1.02.57-.99,1.25.03.69.05,1.4.2,2.07.33,1.46.75,2.89,1.17,4.46.3-.14.58-.24.82-.38,2.32-1.41,4.68-1.78,7.12-.3.17.1.46.26.55.19,1.04-.73,1.77.2,2.78.38.03,3.54.13,7.01-1.49,10.24-1.17,2.33-3.2,3.39-5.67,3.7-1.37.17-2.76.19-4.28.29ZM261.54,128.86c1.44.54,3.57.65,4.76.18.54-.21,1.08-.49,1.51-.87.98-.87,1.03-2.37.18-3.31-1.05-1.17-3.18-1.37-4.92-.48-1.73.88-2.15,1.81-1.7,3.77.06.25.11.51.16.71ZM255.66,91.79c-.77-.82-1.3-1.58-2.01-2.11-.92-.7-1.91-1.39-2.99-1.78-1.79-.65-3.39,1.14-2.75,2.83.51,1.34,1.29,2.45,2.47,3.25.28.19.84.23,1.14.08,1.33-.66,2.61-1.42,4.14-2.26ZM268.2,130.69c-1.09.29-2.04.65-3.02.78-.99.13-2,.03-3.18.03.17,1.09.31,2,.45,2.87,3.38.21,5.07-.88,5.76-3.68Z"></path><path d="M102.39,37.48c.98-.4,1.71-.71,2.61-1.08,1.08,2.68,2.13,5.28,3.24,8.05,1.45-.56,2.85-1.05,4.2-1.64,1.12-.48,1.48-1.44,1.42-2.63-.1-1.95.1-3.86,1.01-5.62,1.53-2.94,5.29-3.94,7.97-2.1,1.47,1.01,2.42,2.4,2.7,4.2.07.47.13.95.19,1.42.89.57,1.86.55,2.82.42,3.55-.49,7.1-1,10.64-1.51.09-.01.18-.09.23-.11-.33-1.08-.65-2.15-.98-3.22-.87-2.84-2.36-3.64-5.25-2.82-.6.17-1.19.38-1.85.6-.12-.54-.24-1-.33-1.47-.04-.2-.03-.42-.05-.72,1.81-1.08,3.75-1.55,5.82-1.2,1.8.3,2.93,1.5,3.5,3.19.38,1.11.61,2.27.96,3.39.3.98.67,1.94,1.83,2.24.04.85.08,1.65.13,2.53-1.46.15-2.84.26-4.2.43-2.71.34-5.42.65-8.11,1.08-1.99.32-3.93.53-5.74-.68-2.38,3.51-5.58,3.72-9.31,2.47-.39,1.99-1.97,2.64-3.63,3.2-1.01.34-1.99.74-3.09,1.15.9,3.59-.27,6.27-3.61,8.16-.38-.62-.78-1.28-1.24-2.03.35-.33.68-.65,1.03-.96,1.72-1.57,2.03-2.64,1.19-4.86-.76-2-1.64-3.95-2.47-5.93-.53-1.28-1.06-2.56-1.63-3.94ZM118.21,40.88c.02.07.04.14.06.21,1.21-.35,2.47-.6,3.61-1.1.55-.24,1.11-.9,1.29-1.48.46-1.54-.84-3.58-2.5-4.15-1.5-.52-3.05.14-3.87,1.7-.59,1.11-.71,2.32-.7,3.56,0,.81.4,1.16,1.15,1.21.32.02.64.04.96.06Z"></path><path d="M146.83,36.59h6.18c.14-4.32.27-8.46.4-12.66h2.88c-.08,4.23-.44,8.36-.55,12.67,1.57.14,3.07.28,4.74.43.57-6.14,1.14-12.13,1.71-18.22,1.07-.3,2,.13,3.06.27-.8,6.98-1.6,13.86-2.39,20.71-5.41-.24-10.64-.48-16.02-.72v-2.48Z"></path><path d="M199.64,27.78c1.02.42,1.84.75,2.75,1.13-.21.58-.35,1.02-.53,1.45-2.21,5.1-4.43,10.2-6.63,15.3-.67,1.54-1.56,2.91-2.79,4.07-4.35,4.1-12.73,1.55-13.74-4.19-.62-3.57.7-6.44,3.24-9.26.61.78,1.09,1.41,1.57,2.03-.53.93-1.15,1.86-1.61,2.86-.62,1.35-.75,2.79-.3,4.22.69,2.2,2.4,3.18,4.5,3.63,2.08.44,3.83-.24,5.15-1.84.63-.77,1.11-1.7,1.5-2.63,2.05-4.94,4.04-9.9,6.06-14.84.24-.59.5-1.17.83-1.91Z"></path><path d="M32.85,137.47c.64-.9,1.06-1.5,1.46-2.06,1.12.49,2.1,1.05,3.15,1.36,2.43.72,4.47-.08,5.79-2.24,1.37-2.24,1.75-4.68,1.21-7.24-.12-.56-.36-1.13-.66-1.62-.85-1.35-1.9-1.56-3.26-.7-.45.28-.85.64-1.29.95-.56.4-1.11.85-1.71,1.19-2.87,1.59-5.85.07-6.3-3.19-.31-2.22.25-4.23,1.62-6.26.73.42,1.44.84,2.25,1.31-.24.47-.45.88-.67,1.28-.51.91-.73,1.89-.63,2.93.15,1.6,1.31,2.23,2.7,1.44.42-.24.79-.55,1.17-.84.43-.32.84-.67,1.27-.98,2.27-1.64,4.12-1.66,6.31.86,2.97,3.4,2.71,7.29.99,11.14-2.51,5.62-8.78,5.97-12.7,3.06-.17-.13-.38-.21-.69-.38Z"></path><path d="M178.27,267.84c-.91-3.82-1.82-7.65-2.76-11.62.7-.18,1.25-.32,1.98-.51,1.34,5.1,2.66,10.15,4.02,15.33-.59.19-1.09.32-1.56.52-.93.39-1.59.12-2.22-.65-2.26-2.78-4.57-5.52-6.86-8.28-.37-.45-.72-.91-1.22-1.54-.34,1.17.15,2.1.24,3.04.11,1.01.37,2,.54,3,.17,1,.32,2.01.48,3.01.17.99.35,1.98.55,3.12-.75.15-1.4.29-2.26.46-.94-5.24-1.64-10.41-2.46-15.57.17-.1.29-.2.43-.26,1.56-.62,2.57-.17,3.6,1.25,2.03,2.81,4.34,5.43,6.53,8.13.2.25.36.53.53.8.15-.08.31-.16.46-.24Z"></path><path d="M256.41,213.39c0,3.82-2.78,7.17-6.34,7.67-.62.09-1.29.05-1.9-.07-3.3-.67-5.77-2.52-7.28-5.52-1.27-2.52-.99-5,.73-7.25,1.65-2.15,3.89-2.91,6.53-2.54,2.83.4,5.17,1.68,6.95,3.92.89,1.13,1.37,2.42,1.3,3.78ZM248.93,218.7c2.35.05,3.69-.83,4.59-2.37.92-1.56.96-3.21,0-4.72-1.59-2.48-3.98-3.74-6.88-3.75-3-.01-5.02,2.88-4.13,5.68.86,2.72,4.14,5.16,6.43,5.16Z"></path><path d="M37.73,204.39c4.96-2.37,9.62-4.59,14.45-6.9,1.03,2.11,2.38,3.98,2.81,6.27.34,1.85.04,3.62-.96,5.24-1.4,2.27-3.48,3.61-6.03,4.16-2.93.64-5.31-.51-6.96-2.89-1.23-1.78-2.14-3.79-3.31-5.88ZM40.7,205.58c.65,1.16,1.15,2.22,1.8,3.19.76,1.15,1.82,1.97,3.23,2.18,2.97.43,6.66-2.2,7.21-5.14.1-.51.11-1.07.02-1.59-.24-1.43-.9-2.68-1.77-3.9-3.52,1.77-6.95,3.48-10.49,5.26Z"></path><path d="M82.57,235.68c1.42,1.08,2.8,2.01,4.03,3.11,2.84,2.52,3.49,6.28,1.64,9.62-.59,1.06-1.37,2.06-2.24,2.9-2.11,2.02-4.97,2.37-7.72.83-1.94-1.09-3.71-2.5-5.72-3.89,3.4-4.27,6.67-8.38,10.01-12.57ZM82.92,238.65c-2.38,3.11-4.73,6.18-7.17,9.36,1.17.79,2.15,1.52,3.2,2.15.99.59,2.08.84,3.24.58,2.79-.61,5.31-4.46,4.82-7.29-.42-2.36-2.14-3.57-4.09-4.81Z"></path><path d="M246.15,200.7c.92-1.74,1.69-3.39,2.64-4.92,1.06-1.72,2.45-2.25,4.23-1.82,1.78.43,2.95,1.46,3.18,3.37.03.21.06.42.09.62,2.87-.12,5.72-.24,8.88-.37-.39.91-.69,1.61-1.05,2.43-1.73,0-3.44,0-5.14,0-2.47-.02-2.81.22-3.77,2.8,2.01,1.02,4.04,2.05,6.16,3.13-.36.73-.68,1.38-1.04,2.12-4.76-2.47-9.39-4.87-14.19-7.36ZM253.36,201.94c.41-1.27.88-2.3,1.05-3.37.17-1.09-.42-1.79-1.45-2.21-.95-.37-1.75-.22-2.44.61-.68.81-1.19,1.73-1.37,2.88,1.32.65,2.6,1.28,4.21,2.08Z"></path><path d="M110.56,251.74c1.94.81,3.84,1.4,5.54,2.35,2.47,1.38,2.62,5.01.36,6.63-.66.47-1.54.64-2.14.88.43,2.78.86,5.6,1.33,8.64-.66-.14-1.1-.26-1.55-.33-.85-.13-1.12-.65-1.17-1.45-.08-1.28-.24-2.55-.34-3.83-.2-2.58-.41-2.84-3.19-3.66-.8,2.11-1.61,4.23-2.47,6.48-.7-.25-1.34-.48-2.16-.78,1.83-5.01,3.84-9.87,5.79-14.94ZM111.78,254.47c-.58,1.57-1.09,2.95-1.67,4.53,1.15.32,2.1.71,3.07.81,1.29.14,2.14-.59,2.44-1.83.26-1.05-.14-1.91-1.26-2.48-.75-.38-1.57-.64-2.58-1.03Z"></path><path d="M65.95,219.13c1.2,1.5,2.38,2.82,3.39,4.26,1.26,1.8,1.18,3.29-.04,4.87-1.2,1.56-2.63,1.94-4.7,1.27-.1-.03-.21-.06-.22-.06-.5,1.39-.99,2.77-1.51,4.14-.5,1.33-1.03,2.66-1.6,4.14-.44-.39-.74-.68-1.05-.94-.67-.56-.81-1.15-.39-1.97.61-1.19,1.09-2.44,1.63-3.67,1.03-2.32.98-2.57-1.05-4.57-1.73,1.43-3.47,2.88-5.34,4.43-.5-.58-.94-1.09-1.53-1.78,4.12-3.36,8.17-6.65,12.42-10.12ZM65.72,222.07c-1.31,1.11-2.46,2.1-3.84,3.27.89.79,1.59,1.53,2.41,2.1,1.03.72,2.03.56,2.89-.3.84-.84.99-1.67.32-2.74-.47-.76-1.09-1.43-1.79-2.33Z"></path><path d="M228.84,225.02c.6-.44,1.07-.78,1.69-1.23,1.45,1.29,3.03,2.69,4.75,4.22,1.52-1.78,2.99-3.5,4.55-5.32-1.76-1.43-3.41-2.77-5.2-4.21.44-.54.83-1.02,1.31-1.6,4.23,3.25,8.38,6.44,12.63,9.71-.52.64-.97,1.2-1.49,1.84-1.9-1.5-3.7-2.92-5.61-4.43-1.55,1.82-3.06,3.58-4.64,5.43,1.79,1.64,3.51,3.22,5.29,4.85-.51.58-.97,1.09-1.56,1.75-3.89-3.65-7.7-7.22-11.72-11Z"></path><path d="M44.27,174.53c.15.56.31,1.17.48,1.8-4.55,3.43-9.07,6.83-13.71,10.33-.24-.77-.46-1.5-.71-2.3,1.14-.89,2.23-1.74,3.38-2.64-.55-2.42-1.1-4.8-1.68-7.35-1.34-.29-2.73-.58-4.2-.89-.13-.76-.26-1.47-.4-2.27,5.7,1.12,11.23,2.21,16.85,3.32ZM42.15,175.91c-2.88-.42-5.36-.79-8.06-1.18.48,2.03.91,3.82,1.37,5.77,2.23-1.53,4.29-2.94,6.69-4.59Z"></path><path d="M210.37,255c-2.27,1.23-4.43,2.4-6.63,3.59.07,1.41.15,2.79.22,4.26-.69.32-1.34.62-2.07.96-.42-5.79-.83-11.41-1.25-17.12.5-.27,1.05-.58,1.6-.88,4.51,3.48,8.99,6.93,13.61,10.5-.68.41-1.34.82-2.05,1.25-1.15-.86-2.26-1.68-3.44-2.55ZM203.48,256.26c1.72-.53,4.15-1.88,5.04-2.77-1.89-1.6-3.79-3.2-6-5.06.35,2.86.65,5.33.96,7.83Z"></path><path d="M50.01,192.52c.27.67.46,1.15.69,1.73-.3.19-.53.39-.8.51-2.64,1.16-5.28,2.34-7.94,3.46-1.28.54-2.62.97-4.05.73-2.39-.41-4.22-2.4-4.7-5.08-.51-2.79.45-4.79,2.98-6.11.61-.32,1.26-.59,1.92-.81,2.64-.87,5.29-1.71,7.94-2.55.24-.08.51-.1.86-.16.22.58.41,1.12.65,1.76-.49.2-.9.39-1.34.55-2.42.84-4.86,1.65-7.27,2.53-.84.31-1.68.72-2.41,1.24-1.37.99-1.68,2.53-.99,4.16.67,1.57,2.08,2.42,3.72,2.12.83-.15,1.66-.4,2.45-.72,2.28-.91,4.54-1.88,6.82-2.81.44-.18.89-.32,1.49-.54Z"></path><path d="M216.43,236.47c.54-.43,1.02-.81,1.61-1.28.86,1.06,1.64,2,2.41,2.95,1.08,1.33,2.15,2.67,3.23,4,.27.33.53.67.78,1.02,2.93,4.22.77,9.12-4.36,9.82-1.4.19-2.66-.3-3.71-1.2-.69-.58-1.33-1.26-1.84-2-1.69-2.48-3.3-5.01-4.94-7.52-.11-.17-.18-.38-.32-.67.49-.34.96-.68,1.53-1.07.29.35.58.65.81.98,1.46,2.12,2.87,4.27,4.36,6.36.55.78,1.19,1.54,1.92,2.13,1.37,1.1,2.76.98,4.25-.17,1.39-1.07,1.8-2.36,1.13-3.96-.35-.83-.84-1.62-1.38-2.33-1.77-2.35-3.6-4.66-5.47-7.08Z"></path><path d="M80.2,233.74c-.46.55-.83.98-1.31,1.55-1.5-1.31-2.94-2.56-4.47-3.9-1.01,1.08-2,2.12-3.09,3.28,1.37,1.27,2.7,2.49,4.1,3.78-.39.51-.74.95-1.23,1.57-1.46-1.26-2.85-2.46-4.36-3.77-1.15,1.22-2.27,2.41-3.49,3.71,1.66,1.5,3.22,2.92,4.85,4.4-.44.53-.8.98-1.3,1.58-2.25-2.02-4.42-3.97-6.74-6.06,3.76-3.86,7.4-7.59,11.15-11.43,1.96,1.76,3.85,3.46,5.89,5.28Z"></path><path d="M118.39,271.07c1.37-5.23,2.69-10.23,4.03-15.34,2.58.58,5.06,1.13,7.65,1.71-.08.63-.16,1.2-.26,1.98-1.97-.4-3.83-.77-5.83-1.17-.36,1.42-.71,2.8-1.11,4.37,1.8.42,3.54.83,5.48,1.28-.11.62-.22,1.21-.36,1.97-1.9-.39-3.7-.76-5.61-1.15-.41,1.71-.79,3.29-1.2,4.97,2.2.5,4.22.96,6.34,1.44-.09.63-.16,1.18-.27,1.96-3-.52-5.88-1.16-8.88-2Z"></path><path d="M163.8,265.12c.08.64.16,1.24.26,1.98-1.91.21-3.7.4-5.66.61.1,1.63.19,3.2.29,4.87,2.21.41,4.29-.36,6.56-.29.07.6.13,1.21.22,1.98-3.01.27-5.87.52-8.96.79-.28-5.38-.55-10.58-.83-15.85.67-.11,1.19-.24,1.71-.28,2.01-.16,4.03-.29,6.21-.45.05.67.09,1.22.15,1.94-1.95.21-3.79.41-5.71.62-.24,1.47.06,2.88.25,4.52,1.8-.14,3.58-.28,5.51-.43Z"></path><path d="M26.69,160.51c.63.05,1.21.1,1.89.16-.06.45-.14.79-.15,1.14-.04.85-.15,1.71-.06,2.56.12,1.21,1.05,2.16,2.1,2.35,1.03.19,1.99-.29,2.59-1.48.55-1.09.93-2.27,1.46-3.38.67-1.4,1.77-2.24,3.37-2.34,2.51-.15,4.18,1.1,4.76,3.56.27,1.16.18,2.58-.26,3.63-.23.03-.49.07-.75.08-.31,0-.62-.03-1.05-.05.03-.49.08-.9.07-1.3-.02-.74,0-1.49-.15-2.21-.16-.79-.73-1.3-1.54-1.45-.82-.16-1.51.14-1.95.81-.38.58-.66,1.22-.95,1.85-.33.73-.57,1.5-.94,2.21-1.01,1.94-2.71,2.65-4.81,2.48-2.02-.16-3.14-1.47-3.74-3.26-.58-1.71-.67-3.45.1-5.36Z"></path><path d="M108.25,251.43c-.31.61-.6,1.17-.89,1.74-3.26-2.6-5.27-2.97-7.69-1.45-2.32,1.46-3.66,4.45-3.15,7.04.51,2.57,2.52,4.03,6.55,4.65-.17.6-.34,1.18-.5,1.74-3.02.52-7.12-2.09-8.25-5.19-1.22-3.37.65-8.09,4.02-10.13,3.19-1.93,7.3-1.33,9.9,1.58Z"></path><path d="M130.17,273.11c.17-.61.33-1.21.51-1.89.86.33,1.64.65,2.43.93.9.32,1.8.27,2.66-.12,1.49-.68,1.91-2.33.87-3.6-.4-.49-.94-.87-1.45-1.25-.6-.45-1.26-.82-1.84-1.29-1.52-1.23-2.01-3.03-1.38-4.91.54-1.63,2.05-2.73,3.91-2.83,1.36-.07,2.65.21,4,.97-.15.63-.3,1.26-.43,1.83-1.17-.28-2.18-.62-3.22-.73-.9-.09-1.71.33-2.04,1.25-.3.87-.15,1.7.61,2.32.45.37.92.73,1.39,1.08.51.38,1.06.73,1.56,1.13,1.39,1.13,2.01,2.58,1.83,4.38-.19,1.91-1.32,3.39-3.17,3.78-2.15.46-4.25.29-6.26-1.07Z"></path><path d="M153.2,259.7c-.05.67-.09,1.3-.13,1.95-3.72-1.06-5.86-.56-7.46,1.67-1.63,2.27-1.67,5.75-.09,7.85,1.63,2.17,4.1,2.68,7.88,1.52.1.68.2,1.33.3,1.95-3.3,1.69-8.14.52-9.98-1.79-2.29-2.88-2.25-7.88.09-10.95,2.2-2.9,6.5-3.73,9.4-2.21Z"></path><path d="M83.96,35.81c.96-.53,1.78-.99,2.71-1.5,3.41,6.21,6.74,12.29,10.16,18.51-.77.43-1.44.81-2.27,1.28-3.52-6.08-7-12.08-10.6-18.29Z"></path><path d="M237.09,81.6c-.61-.78-1.07-1.36-1.62-2.05,5.4-4.46,10.75-8.88,16.27-13.43.63.74,1.23,1.45,1.99,2.35-5.5,4.41-11.02,8.68-16.63,13.13Z"></path><path d="M170.85,19.79c1.1.18,1.97.33,3.04.51-1.27,6.94-2.51,13.75-3.78,20.7-.86-.11-1.62-.21-2.58-.33,1.11-6.98,2.2-13.8,3.32-20.88Z"></path><path d="M263.92,169.55c-1.79-1.45-3.25-2.78-4.87-3.88-1.27-.87-1.91-1.8-1.25-3.46.33.19.7.35,1,.59,2.14,1.7,4.3,3.36,6.36,5.15.78.68,1.61.99,2.57,1.13,1.63.24,3.26.5,5.02.77-.14.8-.25,1.45-.39,2.27-1.78-.28-3.47-.48-5.12-.85-1.01-.23-1.85-.05-2.78.32-2.48.99-5,1.89-7.51,2.81-.34.13-.71.19-1.28.34.15-.79.28-1.44.42-2.17,2.48-.96,4.96-1.92,7.82-3.03Z"></path><path d="M43.88,118.22c-.93-.27-1.68-.48-2.59-.74.48-1.54.94-2.95,1.37-4.36.22-.71.46-1.43.59-2.16.2-1.18-.25-1.88-1.42-2.1-.61-.12-1.32-.15-1.89.04-1.36.44-2.69,1.02-4.01,1.58-.48.2-.92.5-1.53.84-.37-.84-.71-1.6-1.11-2.5,1.71-1.22,3.56-1.95,5.54-2.42,1.27-.3,2.53-.35,3.8.06,2.59.84,3.87,2.99,3.18,5.62-.53,2.01-1.23,3.97-1.92,6.15Z"></path><path d="M179.41,255.27c3.46-1.17,6.78-2.29,10.17-3.43.24.58.46,1.12.74,1.79-1.36.54-2.68,1.07-4.11,1.64,1.5,4.34,2.97,8.62,4.51,13.07-.73.24-1.4.46-2.23.74-1.45-4.41-2.87-8.75-4.32-13.15-1.45.42-2.77.81-4.22,1.23-.19-.69-.36-1.28-.53-1.89Z"></path><path d="M257.51,175.71c-.32,1.43-.63,2.77-.97,4.28,4.43,1.22,8.82,2.44,13.3,3.67-.21.81-.39,1.46-.6,2.26-4.46-1.29-8.79-2.55-13.28-3.86-.48,1.4-.94,2.74-1.44,4.18-.63-.21-1.17-.4-1.82-.62.97-3.47,1.92-6.84,2.92-10.38.58.14,1.17.28,1.89.46Z"></path><path d="M227.56,226.61c.48.44.9.82,1.43,1.31-1.1,1.13-2.06,2.11-3.15,3.23,3.12,3.32,6.22,6.62,9.45,10.06-.62.52-1.17.98-1.81,1.51-3.02-3.3-6.08-6.65-9.22-10.09-1.11.93-2.16,1.82-3.35,2.82-.42-.47-.82-.93-1.29-1.46,2.66-2.47,5.27-4.89,7.94-7.37Z"></path><path d="M59.38,210.24c.41.62.73,1.1,1.15,1.74-4.36,2.98-8.67,5.93-13.13,8.97-.44-.63-.85-1.22-1.35-1.96,4.44-2.92,8.81-5.78,13.33-8.76Z"></path><path d="M266.97,192.84c-.29.77-.53,1.4-.84,2.21-4.97-1.88-9.83-3.72-14.81-5.61.09-.36.15-.65.25-.93.11-.3.25-.58.45-1.03,4.98,1.78,9.91,3.55,14.96,5.36Z"></path><path d="M157.41,21.09c.01.13.06.29.03.43-.04.2-.14.39-.23.62-.51,0-.99.02-1.46,0-1.06-.05-2.12-.12-3.16-.19q-.15-1.11,1.14-1.31c-.12-.29-.23-.56-.33-.83-.47-1.27.04-2.4,1.39-2.67.85-.17,1.77-.03,2.78-.03-.12.46-.2.8-.31,1.21-.53,0-1.04-.1-1.47.03-.4.12-.95.44-1.02.76-.08.35.22.98.54,1.18.61.38,1.36.54,2.09.8Z"></path><path d="M258.91,85.03c-.02-.88.58-1.54,1.43-1.58.96-.04,1.82.81,1.83,1.81,0,.9-.58,1.56-1.42,1.58-.94.03-1.81-.83-1.83-1.81Z"></path><path d="M252,114.71c0,.85-.78,1.59-1.67,1.57-.81-.02-1.43-.62-1.44-1.4-.01-.86.76-1.59,1.66-1.57.79.01,1.44.65,1.45,1.4Z"></path><path d="M251.58,119.92c-.85,0-1.43-.56-1.45-1.38-.02-.85.62-1.5,1.51-1.53.9-.03,1.57.61,1.54,1.47-.03.84-.72,1.46-1.6,1.45Z"></path><path d="M50.39,135.39c-.93-.04-1.55-.66-1.51-1.5.04-.76.69-1.3,1.55-1.26.91.04,1.55.69,1.51,1.51-.04.78-.67,1.28-1.55,1.25Z"></path><path d="M52.56,130.48c0,.8-.61,1.35-1.47,1.33-.89-.01-1.6-.66-1.58-1.45.01-.75.69-1.37,1.48-1.36.85,0,1.58.69,1.57,1.48Z"></path></g></g></svg> 